<?xml version="1.0" standalone="no"?>
<!DOCTYPE svg PUBLIC "-//W3C//DTD SVG 20010904//EN"
        "http://www.w3.org/TR/2001/REC-SVG-20010904/DTD/svg10.dtd">
<svg version="1.0" xmlns="http://www.w3.org/2000/svg"
     width="1024.000000pt" height="1024.000000pt" viewBox="0 0 1024.000000 1024.000000"
     preserveAspectRatio="xMidYMid meet">

  <g transform="translate(0.000000,1024.000000) scale(0.100000,-0.100000)"
     fill="#000000" stroke="none">
    <path d="M4765 9345 c-259 -42 -537 -142 -727 -261 -165 -103 -384 -304 -510
-465 -276 -355 -428 -794 -428 -1239 0 -362 85 -685 270 -1030 l56 -105 -11
-282 -10 -283 -281 -2 c-261 -3 -283 -4 -303 -22 -30 -27 -28 -85 2 -114 l23
-22 2193 0 c2393 0 2242 -4 2257 55 11 44 -4 75 -44 92 -32 13 -71 15 -274 9
l-237 -7 -5 33 c-3 18 -11 146 -17 283 -6 138 -14 254 -19 258 -4 4 28 76 70
160 178 355 248 667 237 1067 -4 156 -10 219 -31 315 -36 172 -87 319 -166
480 -152 311 -346 540 -649 764 -166 122 -450 241 -714 297 -108 23 -150 27
-357 30 -172 2 -259 -1 -325 -11z m205 -210 c0 -86 -3 -107 -15 -112 -9 -3
-18 -3 -21 0 -3 3 -8 53 -11 111 l-5 106 26 0 26 0 0 -105z m-133 23 c21 -18
40 -34 42 -35 7 -5 -71 -83 -82 -83 -5 0 -6 7 -3 15 4 10 -3 20 -19 27 -30 14
-32 39 -4 56 14 9 18 19 14 32 -9 29 9 25 52 -12z m523 -2 c0 -2 3 -12 7 -21
5 -15 1 -16 -35 -10 -39 6 -42 5 -48 -21 -10 -38 7 -59 45 -57 46 2 39 -31 -8
-35 -45 -5 -81 29 -81 75 0 46 30 73 80 73 22 0 40 -2 40 -4z m350 -116 l0
-90 60 0 c57 0 60 -1 60 -25 0 -28 -17 -31 -117 -19 l-53 7 0 102 c0 56 3 105
7 108 3 4 15 7 25 7 16 0 18 -9 18 -90z m-1260 20 c14 -14 20 -33 20 -63 0
-61 -17 -79 -78 -85 l-52 -5 0 87 0 86 45 0 c32 0 51 -6 65 -20z m793 -91
c107 -40 133 -54 180 -103 31 -32 53 -45 82 -49 128 -20 286 -151 340 -283 40
-98 47 -252 15 -378 -34 -136 -96 -274 -114 -255 -3 3 4 38 15 79 25 93 38
322 20 344 -9 11 -9 16 0 21 17 11 4 97 -24 158 -49 104 -152 190 -272 224
-42 12 -70 29 -106 63 -115 111 -273 154 -422 115 -104 -27 -195 -85 -247
-156 -17 -24 -31 -35 -39 -30 -17 11 -102 -4 -155 -28 -60 -26 -140 -108 -172
-173 l-26 -53 6 48 c15 127 142 250 273 265 40 4 54 13 112 72 74 75 135 110
231 133 124 30 190 27 303 -14z m-1291 -166 c26 -23 23 -32 -24 -80 l-42 -43
41 0 c75 0 123 -62 123 -158 0 -55 -29 -108 -70 -129 -63 -32 -154 -4 -186 58
-24 48 -16 150 18 219 25 51 102 150 115 150 4 0 15 -7 25 -17z m2260 0 c25
-23 23 -34 -17 -73 -42 -40 -44 -50 -10 -50 72 0 119 -60 119 -150 -1 -100
-48 -150 -138 -150 -117 0 -172 150 -104 284 20 39 114 156 126 156 3 0 14 -7
24 -17z m-2002 -273 c0 -24 -36 -35 -85 -26 -32 6 -44 23 -28 39 3 4 30 7 60
7 46 0 53 -3 53 -20z m447 -246 c103 -138 282 -239 441 -251 40 -3 72 -2 72 3
0 5 -26 22 -57 39 -55 29 -183 138 -183 156 0 5 19 -3 42 -17 55 -35 125 -66
240 -105 88 -31 101 -33 245 -33 l153 -1 0 -52 c0 -29 1 -56 3 -59 1 -3 -83
-5 -188 -5 -104 1 -203 -3 -220 -7 -17 -5 -39 -22 -50 -40 -19 -30 -23 -31
-87 -32 -65 0 -68 1 -83 30 -8 16 -24 34 -34 40 -12 6 -102 10 -222 10 l-202
0 6 88 c6 88 35 210 63 264 9 16 17 28 19 26 2 -1 20 -26 42 -54z m-1069 -46
c21 -21 13 -33 -26 -33 -53 -1 -72 -11 -72 -38 0 -29 12 -40 62 -56 111 -36
101 -181 -12 -181 -46 0 -94 21 -103 45 -8 18 7 19 67 3 52 -14 76 -1 76 38 0
25 -28 48 -71 58 -78 18 -99 95 -41 147 35 31 97 40 120 17z m2927 -72 c21
-11 50 -37 63 -56 46 -67 14 -178 -62 -214 -29 -13 -75 -16 -298 -16 -252 0
-266 1 -283 20 -17 19 -17 21 0 40 17 19 31 20 270 20 240 0 254 1 279 21 34
27 37 86 5 115 -19 17 -42 19 -284 22 -207 3 -266 6 -275 17 -16 19 7 53 40
58 14 3 133 2 265 0 221 -5 243 -7 280 -27z m-2567 -22 c18 -5 22 -13 22 -45
l0 -39 46 0 c45 0 45 0 42 -32 -3 -31 -5 -33 -43 -33 l-40 0 -3 -48 c-3 -46
-4 -48 -30 -45 -23 3 -27 8 -28 38 -1 19 -2 41 -3 48 -1 8 -18 12 -52 12 -49
0 -50 1 -47 28 3 25 7 27 51 30 l47 3 0 45 c0 46 1 47 38 38z m978 -280 c10
-38 -4 -161 -21 -195 -19 -37 -47 -44 -166 -44 -152 0 -179 27 -179 179 l0 86
180 0 180 0 6 -26z m640 15 c4 -7 7 -49 6 -96 0 -136 -24 -157 -184 -158 -102
0 -109 1 -133 25 -30 30 -50 130 -40 198 l6 42 169 0 c115 0 171 -4 176 -11z
m218 -38 c75 -66 63 -235 -23 -332 -34 -38 -44 -44 -91 -49 l-53 -5 -17 -86
c-19 -94 -43 -156 -87 -221 l-29 -43 2 -165 c1 -91 0 -173 -2 -182 -3 -9 -44
-49 -92 -89 -48 -41 -130 -111 -182 -158 -52 -47 -105 -94 -117 -104 -21 -19
-22 -19 -50 8 -15 14 -88 79 -162 143 -73 64 -152 133 -174 152 l-40 36 -3
176 -3 176 -32 47 c-42 63 -88 182 -97 253 l-7 57 -53 6 c-103 13 -163 94
-170 227 -5 82 8 122 46 152 62 50 106 15 137 -109 19 -76 46 -122 90 -147 25
-15 53 -18 172 -18 96 0 150 4 166 13 35 19 64 76 77 154 l12 67 68 0 69 0 11
-57 c15 -71 41 -132 66 -155 25 -22 152 -33 259 -23 68 6 81 11 111 38 28 27
38 48 58 127 34 132 77 166 140 111z m-1649 -76 c14 -13 25 -31 25 -40 0 -25
-28 -29 -48 -7 -25 30 -70 33 -96 6 -18 -18 -23 -143 -6 -174 22 -42 92 -32
111 16 6 17 15 24 27 22 26 -6 17 -49 -18 -80 -44 -41 -97 -39 -144 6 -36 33
-36 34 -36 121 0 86 1 88 34 121 29 29 41 34 80 34 36 0 52 -6 71 -25z m-423
-88 c-2 -56 1 -115 7 -130 10 -25 15 -27 64 -27 61 0 67 -3 60 -31 -5 -16 -14
-19 -65 -19 -110 0 -124 24 -120 193 l3 117 27 0 27 0 -3 -103z m-261 37 c10
-9 19 -26 19 -37 0 -21 -6 -20 -67 4 -26 10 -34 10 -47 0 -27 -23 -18 -41 32
-63 67 -29 92 -55 92 -95 0 -52 -37 -83 -99 -83 -38 0 -56 6 -78 24 -23 20
-25 26 -14 40 12 14 16 14 42 1 36 -19 73 -19 89 0 19 23 5 41 -46 59 -67 23
-84 41 -84 91 0 41 15 64 50 78 26 11 91 0 111 -19z m3337 -51 c70 -52 89
-128 50 -203 -41 -81 -35 -80 -496 -80 l-402 0 -12 26 c-24 53 -13 54 412 54
375 0 387 1 408 20 28 26 29 73 2 100 -19 19 -33 20 -408 20 -366 0 -390 1
-406 19 -19 21 -12 49 15 59 10 4 196 6 414 6 375 -2 399 -3 423 -21z m-2862
-383 c42 0 44 1 44 30 0 34 -1 34 65 16 32 -8 49 -18 48 -27 0 -8 -3 -25 -5
-38 -2 -18 4 -29 24 -40 24 -14 28 -14 46 2 26 23 39 21 67 -10 24 -28 32 -53
17 -53 -5 0 -14 -11 -21 -24 -11 -19 -11 -30 0 -61 13 -34 16 -36 46 -30 l33
6 0 -55 0 -55 -37 -3 c-37 -3 -38 -4 -41 -46 -2 -31 1 -44 12 -48 22 -8 20
-29 -6 -75 -25 -45 -28 -46 -53 -19 -24 26 -47 25 -74 -4 -22 -23 -22 -25 -6
-50 l17 -26 -43 -20 c-59 -26 -66 -25 -74 10 -6 28 -10 30 -50 30 -39 0 -43
-2 -48 -30 -7 -35 -28 -38 -82 -16 -40 17 -40 17 -19 58 15 28 15 30 0 25 -9
-4 -16 -2 -16 3 0 5 -12 16 -27 24 -24 12 -30 12 -55 -7 -32 -24 -44 -17 -74
38 l-19 36 23 18 c19 14 23 25 20 57 -3 38 -4 39 -40 38 l-38 -1 0 53 0 54 33
0 c30 0 34 3 44 41 10 39 9 43 -15 64 -28 24 -27 27 24 90 16 20 16 20 41 -11
l26 -31 38 25 c38 25 38 25 24 59 -14 34 -14 34 18 47 61 25 61 25 76 -10 13
-31 17 -34 57 -34z m2554 -146 c76 -44 103 -140 60 -211 -40 -66 -33 -65 -419
-67 -340 -1 -350 0 -378 20 -101 75 -97 206 8 262 44 23 45 23 369 20 307 -3
327 -4 360 -24z m-124 -372 c17 -11 34 -48 34 -76 0 -44 -21 -75 -56 -85 -69
-19 -84 -1 -84 107 l0 62 48 0 c26 0 52 -4 58 -8z m-1581 -232 c65 -55 170
-153 178 -167 4 -6 -28 -58 -71 -116 l-78 -105 -44 50 c-25 27 -48 59 -52 71
-4 12 -36 116 -72 231 -36 115 -66 214 -66 219 0 6 35 -24 78 -65 42 -42 100
-95 127 -118z m746 9 c-32 -95 -66 -204 -76 -241 -14 -54 -26 -75 -62 -110
-39 -38 -45 -41 -54 -26 -5 9 -24 36 -42 60 -18 24 -49 66 -69 95 l-37 52 156
138 c87 76 176 155 198 175 22 20 41 35 42 34 1 -1 -24 -81 -56 -177z m189
119 c7 -24 42 -120 77 -215 35 -95 63 -178 63 -186 0 -12 -39 -32 -46 -24 -1
1 -29 86 -63 188 -43 132 -61 201 -61 238 0 60 11 60 30 -1z m-1414 -73 c-21
-19 -192 -111 -380 -206 -187 -94 -351 -181 -364 -193 l-24 -21 7 30 c20 85
30 94 190 168 83 37 206 92 275 122 69 30 170 74 225 99 54 25 102 43 105 39
3 -3 -12 -20 -34 -38z m1989 -165 c138 -62 260 -122 272 -133 42 -38 54 -101
63 -339 5 -123 9 -235 10 -250 0 -25 -4 -28 -33 -28 l-34 0 -7 163 c-3 89 -13
207 -21 262 -12 84 -18 103 -37 118 -35 26 -558 270 -624 291 -15 5 -25 20
-33 50 -6 24 -13 51 -17 60 -4 11 24 2 102 -33 60 -27 222 -99 359 -161z
m-993 -344 l37 -41 35 34 c20 19 36 31 36 27 0 -4 -11 -45 -24 -90 -14 -44
-42 -138 -62 -208 l-38 -128 -43 0 -43 0 0 113 c0 61 -5 152 -10 201 l-10 88
32 38 c28 31 35 35 43 22 6 -9 27 -34 47 -56z m-359 27 c23 -37 24 -42 19
-236 l-4 -198 -40 3 c-40 3 -41 4 -59 63 -32 100 -86 288 -94 324 l-7 34 34
-27 c39 -29 45 -27 92 37 15 20 29 37 31 37 3 0 15 -17 28 -37z m829 -60 c69
-28 80 -41 54 -62 -23 -19 -103 27 -127 71 -13 24 -7 23 73 -9z"/>
    <path d="M4380 9000 c0 -48 2 -51 23 -48 19 3 22 9 22 48 0 39 -3 45 -22 48
-21 3 -23 0 -23 -48z"/>
    <path d="M3882 8613 c-19 -7 -42 -58 -42 -93 0 -33 38 -80 64 -80 28 0 64 22
75 47 35 77 -25 155 -97 126z"/>
    <path d="M6121 8594 c-43 -55 -12 -154 49 -154 36 0 70 44 70 90 0 78 -76 118
-119 64z"/>
    <path d="M4731 7831 c-24 -44 -5 -101 33 -101 31 0 53 50 40 88 -12 35 -58 43
-73 13z"/>
    <path d="M5329 7823 c-20 -51 20 -111 59 -87 20 13 28 65 12 94 -16 31 -58 26
-71 -7z"/>
    <path d="M5621 7534 c0 -11 3 -14 6 -6 3 7 2 16 -1 19 -3 4 -6 -2 -5 -13z"/>
    <path d="M4970 7441 c0 -11 7 -27 16 -35 20 -20 70 -21 78 -1 3 8 0 15 -6 15
-6 0 -19 6 -27 14 -9 7 -26 17 -38 20 -19 6 -23 3 -23 -13z m66 -23 c12 -19
-6 -19 -27 0 l-21 21 21 -6 c12 -3 24 -10 27 -15z"/>
    <path d="M5158 7443 c15 -6 16 -29 2 -36 -6 -3 -5 -4 2 -3 7 1 14 12 16 24 3
16 -2 22 -15 21 -10 0 -13 -3 -5 -6z"/>
    <path d="M4903 7229 c-20 -20 -3 -39 36 -39 24 0 32 3 22 9 -7 5 -10 14 -7 20
9 14 225 15 246 1 11 -7 1 -10 -35 -11 l-50 -2 45 -7 c55 -10 82 -4 78 18 -3
15 -23 17 -163 20 -111 2 -164 -1 -172 -9z"/>
    <path d="M3881 7150 c-74 -18 -122 -76 -129 -155 -6 -69 9 -106 61 -150 69
-59 150 -57 224 8 43 38 63 81 63 139 0 102 -113 184 -219 158z"/>
    <path d="M5800 7073 c-51 -19 -66 -77 -30 -111 19 -18 46 -20 334 -26 334 -8
342 -7 372 39 14 21 14 30 4 55 -7 17 -21 35 -31 40 -19 10 -622 13 -649 3z"/>
    <path d="M6296 6724 c-3 -9 -6 -31 -6 -50 0 -33 2 -35 28 -32 29 3 39 29 28
74 -7 27 -40 33 -50 8z"/>
    <path d="M3060 5270 c-91 -7 -115 -16 -99 -36 6 -8 16 -11 21 -8 6 4 8 -1 4
-13 -4 -13 2 -26 19 -41 l25 -22 2112 0 2112 0 -35 36 c-54 56 -102 76 -204
84 -112 8 -3852 8 -3955 0z"/>
    <path d="M3197 4872 c-15 -16 -17 -47 -17 -219 0 -111 3 -209 6 -218 11 -27
53 -38 80 -20 22 14 24 22 24 100 l0 85 95 0 95 0 0 -44 c0 -24 3 -64 6 -89 6
-39 11 -47 34 -56 21 -7 33 -6 49 5 20 15 21 23 21 225 0 126 -4 218 -10 230
-7 12 -21 19 -40 19 -44 0 -60 -31 -60 -117 l0 -73 -95 0 -95 0 0 79 c0 59 -4
84 -16 95 -21 21 -57 20 -77 -2z"/>
    <path d="M3838 4880 c-100 -30 -168 -125 -168 -233 1 -213 268 -312 408 -152
50 56 66 95 66 155 0 68 -26 121 -87 177 -62 57 -142 76 -219 53z m123 -115
c56 -29 82 -99 60 -158 -14 -37 -61 -76 -99 -83 -92 -17 -180 93 -138 174 37
72 112 100 177 67z"/>
    <path d="M4356 4868 c-8 -13 -25 -50 -39 -83 -14 -33 -53 -118 -86 -189 -34
-71 -61 -136 -61 -145 0 -26 21 -41 58 -41 30 0 35 5 50 39 l17 40 90 3 c50 2
95 1 102 -2 6 -3 22 -21 35 -40 44 -65 124 -47 100 23 -9 28 -142 323 -175
387 -18 35 -70 40 -91 8z m69 -214 c14 -31 25 -58 25 -60 0 -2 -22 -4 -50 -4
-49 0 -63 12 -41 36 5 5 14 26 21 47 6 20 14 37 16 37 2 0 15 -25 29 -56z"/>
    <path d="M4702 4878 c-17 -17 -17 -439 0 -456 16 -16 75 -15 85 1 4 6 6 67 4
135 -1 67 -1 122 2 122 2 0 56 -60 120 -134 65 -73 126 -136 136 -139 11 -3
29 2 40 10 20 14 21 23 21 232 0 233 -2 241 -51 241 -45 0 -54 -22 -59 -157
l-5 -125 -113 141 c-96 121 -116 141 -140 141 -15 0 -33 -5 -40 -12z"/>
    <path d="M5340 4877 c-19 -6 -56 -32 -82 -58 -203 -203 40 -505 300 -371 l62
32 1 78 c2 91 0 104 -11 116 -13 13 -109 19 -155 9 -34 -7 -40 -13 -43 -37 -5
-38 8 -49 60 -50 76 -2 57 -64 -24 -73 -60 -7 -108 16 -136 66 -38 66 -21 133
41 171 39 24 78 25 139 3 43 -15 48 -15 72 1 32 20 33 46 3 74 -51 48 -146 65
-227 39z"/>
    <path d="M5956 4868 c-13 -19 -16 -57 -16 -219 0 -109 3 -205 6 -214 11 -27
53 -38 80 -20 22 14 24 22 24 100 l0 85 95 0 95 0 0 -67 c0 -87 7 -111 34
-120 27 -9 59 -4 68 11 13 20 9 441 -4 454 -16 16 -63 15 -77 -2 -6 -7 -14
-50 -18 -95 l-6 -82 -91 3 -91 3 -5 80 c-3 44 -9 86 -13 93 -14 20 -64 14 -81
-10z"/>
    <path d="M6586 4876 c-57 -21 -108 -67 -136 -121 -91 -178 80 -387 271 -332
167 49 230 233 126 369 -61 80 -174 116 -261 84z m145 -123 c58 -49 68 -104
32 -175 -32 -64 -129 -75 -184 -22 -59 56 -56 138 7 193 46 41 99 42 145 4z"/>
    <path d="M7229 4163 c-13 -16 -12 -17 4 -4 16 13 21 21 13 21 -2 0 -10 -8 -17
-17z"/>
    <path d="M2887 4129 c7 -7 15 -10 18 -7 3 3 -2 9 -12 12 -14 6 -15 5 -6 -5z"/>
    <path d="M2988 4093 c6 -2 18 -2 25 0 6 3 1 5 -13 5 -14 0 -19 -2 -12 -5z"/>
    <path d="M3528 4083 c68 -2 176 -2 240 0 64 1 9 3 -123 3 -132 0 -185 -2 -117
-3z"/>
    <path d="M3903 4083 c9 -2 23 -2 30 0 6 3 -1 5 -18 5 -16 0 -22 -2 -12 -5z"/>
    <path d="M4508 4083 c61 -2 163 -2 225 0 61 1 11 3 -113 3 -124 0 -174 -2
-112 -3z"/>
    <path d="M5348 4083 c34 -2 88 -2 120 0 31 2 3 3 -63 3 -66 0 -92 -1 -57 -3z"/>
    <path d="M5553 4083 c15 -2 39 -2 55 0 15 2 2 4 -28 4 -30 0 -43 -2 -27 -4z"/>
    <path d="M5958 4083 c23 -2 59 -2 80 0 20 2 1 4 -43 4 -44 0 -61 -2 -37 -4z"/>
    <path d="M9574 2685 c0 -159 2 -223 3 -142 2 82 2 212 0 290 -1 78 -3 12 -3
-148z"/>
    <path d="M4577 2820 c-117 -29 -188 -102 -222 -226 -2 -6 -31 -13 -64 -16
-170 -12 -255 -200 -153 -337 50 -67 71 -71 412 -71 300 0 306 1 355 24 88 42
135 112 135 204 0 57 -43 133 -90 160 -18 11 -32 28 -36 47 -16 75 -96 170
-168 200 -45 19 -124 26 -169 15z m137 -75 c81 -34 151 -129 144 -195 -2 -18
2 -25 17 -28 30 -6 83 -61 96 -100 13 -40 0 -101 -28 -123 -15 -12 -16 -12 -9
6 18 42 17 64 -2 108 -22 50 -69 82 -102 72 -18 -6 -20 -1 -20 60 0 63 -2 67
-40 109 -68 73 -144 99 -217 73 -24 -8 -43 -13 -43 -10 0 2 19 13 43 23 51 24
112 25 161 5z m-174 -296 c0 -19 5 -29 15 -29 10 0 15 10 15 30 0 27 3 30 30
30 27 0 30 -3 30 -30 0 -25 4 -30 25 -30 18 0 25 -5 25 -20 0 -15 -7 -20 -25
-20 -22 0 -25 -4 -25 -35 0 -24 -5 -35 -14 -35 -32 0 -46 13 -46 42 0 23 -4
29 -17 26 -14 -3 -17 -12 -15 -36 3 -30 1 -32 -27 -32 -26 0 -30 4 -33 33 -2
24 -8 33 -25 35 -34 5 -31 42 3 42 24 0 26 3 21 29 -6 27 -3 30 21 33 37 5 42
1 42 -33z"/>
    <path d="M5417 2763 c-5 -4 -42 -10 -84 -14 -73 -6 -78 -8 -115 -47 l-38 -41
0 -611 0 -610 395 0 395 0 1 208 c0 114 1 273 2 354 l2 148 -347 0 -348 0 0
25 0 25 345 0 345 0 0 118 0 118 -340 -4 -340 -4 0 31 0 31 345 0 345 0 0 88
c0 96 -19 145 -63 161 -34 12 -156 21 -162 12 -2 -5 -35 -6 -71 -3 -57 4 -69
2 -81 -13 -12 -18 -14 -18 -26 -1 -11 15 -24 17 -73 14 -41 -2 -62 1 -69 10
-6 7 -14 10 -18 5z m-35 -105 c3 -41 5 -43 37 -46 l34 -3 -6 46 -7 46 58 -3
c53 -3 57 -5 58 -28 3 -60 3 -60 40 -60 l36 0 -6 45 -7 45 61 0 c57 0 61 -1
59 -22 -5 -57 0 -68 31 -68 29 0 30 2 30 46 l0 47 47 -6 c27 -3 52 -12 59 -21
15 -21 28 -102 19 -117 -5 -7 -113 -10 -340 -8 -330 2 -333 2 -339 23 -7 28 4
93 18 105 11 9 46 16 93 20 19 1 22 -5 25 -41z m418 -343 l0 -25 -260 0 c-245
0 -260 1 -260 18 0 10 3 22 7 25 3 4 120 7 260 7 l253 0 0 -25z m-110 -265 l0
-30 -205 0 -205 0 0 25 0 25 203 3 c111 1 203 3 205 5 1 1 2 -11 2 -28z m50
-135 l0 -25 -230 0 -230 0 0 25 0 25 230 0 230 0 0 -25z m-158 -140 l-4 -25
-149 0 c-138 0 -149 1 -149 18 0 10 3 22 7 25 3 4 72 7 153 7 l147 0 -5 -25z
m98 -135 l0 -25 -200 3 c-190 3 -200 4 -200 22 0 17 9 20 83 23 45 2 135 3
199 3 l118 -1 0 -25z m180 -124 c0 -25 -3 -28 -22 -22 -13 3 -143 6 -290 6
-259 0 -268 1 -268 19 0 25 9 26 327 26 l253 0 0 -29z"/>
    <path d="M2965 2735 l-25 -24 0 -283 c0 -240 2 -287 16 -306 15 -21 20 -22
210 -22 123 0 194 -4 194 -10 0 -6 28 -10 64 -10 36 0 68 5 71 10 4 6 79 10
193 10 154 0 192 3 210 16 22 15 22 17 22 307 0 161 -4 297 -8 303 -21 32 -53
34 -487 34 l-436 0 -24 -25z m110 -55 c0 -20 -6 -26 -26 -28 -30 -4 -46 22
-28 45 20 23 54 12 54 -17z m113 -2 c2 -20 -1 -28 -12 -28 -27 0 -46 12 -46
29 0 43 53 41 58 -1z m122 13 c7 -15 6 -24 -6 -36 -23 -22 -38 -14 -42 23 -3
27 0 32 17 32 11 0 25 -9 31 -19z m285 -11 c0 -18 -6 -26 -23 -28 -13 -2 -25
3 -28 12 -10 26 4 48 28 44 17 -2 23 -10 23 -28z m129 15 c9 -25 -4 -45 -30
-45 -20 0 -24 5 -24 30 0 25 4 30 24 30 13 0 26 -7 30 -15z m114 3 c18 -18 14
-46 -8 -53 -28 -9 -40 2 -40 36 0 31 25 40 48 17z m-10 -105 l32 -5 0 -179 0
-179 -425 0 -425 0 0 179 c0 178 0 180 23 183 38 6 760 8 795 1z"/>
    <path d="M3340 2270 c0 -5 5 -10 10 -10 6 0 10 5 10 10 0 6 -4 10 -10 10 -5 0
-10 -4 -10 -10z"/>
    <path d="M6622 2740 c-65 -30 -111 -69 -142 -123 -27 -48 -28 -49 -82 -52
-130 -8 -228 -110 -228 -235 0 -81 51 -158 135 -203 39 -21 51 -22 365 -22
316 0 326 1 366 22 86 46 136 150 114 235 -18 64 -76 138 -122 153 -11 4 -18
16 -18 31 0 61 -80 157 -164 195 -56 26 -166 25 -224 -1z m204 -59 c75 -34
124 -110 124 -192 0 -22 5 -29 20 -29 61 0 114 -65 114 -141 0 -53 -19 -87
-68 -123 -26 -20 -43 -21 -299 -24 -290 -3 -308 -1 -361 47 -33 30 -65 95 -66
132 0 36 53 112 94 134 30 16 40 17 74 7 55 -17 62 -15 62 14 0 14 7 41 16 60
19 40 40 57 29 25 -10 -34 3 -24 24 17 24 47 47 68 91 80 54 16 101 13 146 -7z"/>
    <path d="M8170 2724 c-77 -15 -179 -48 -233 -75 -194 -98 -334 -299 -368 -529
-35 -245 92 -485 332 -627 16 -10 29 -21 29 -24 0 -4 -76 -5 -168 -2 -145 4
-169 3 -181 -10 -7 -9 -10 -21 -6 -27 4 -7 221 -10 676 -10 605 0 670 2 676
16 11 28 -19 34 -174 32 -84 -1 -155 1 -158 4 -3 3 24 24 59 47 127 82 221
211 262 361 27 97 24 283 -5 370 -69 201 -251 376 -468 451 -56 19 -221 33
-273 23z m67 -111 c-2 -16 -4 -5 -4 22 0 28 2 40 4 28 2 -13 2 -35 0 -50z
m-37 47 c0 -6 -7 -13 -15 -16 -8 -3 -17 -14 -20 -25 -4 -10 -11 -19 -17 -19
-13 0 -1 52 15 62 17 11 37 10 37 -2z m136 -16 c-4 -9 -1 -23 5 -30 9 -11 8
-14 -5 -14 -22 0 -31 27 -16 45 16 20 24 19 16 -1z m42 -22 c2 -18 -1 -32 -6
-32 -6 0 -8 9 -5 20 3 11 -1 28 -8 37 -12 14 -12 16 1 11 8 -2 16 -19 18 -36z
m112 -28 c0 -32 2 -34 34 -34 19 0 37 -4 40 -8 4 -7 -95 -5 -100 2 0 0 1 20 4
43 5 50 22 48 22 -3z m-280 21 c0 -9 -9 -15 -21 -15 -18 0 -19 2 -9 15 7 8 16
15 21 15 5 0 9 -7 9 -15z m104 -55 c22 -5 51 -18 65 -29 14 -11 45 -30 69 -42
84 -42 116 -118 92 -218 -18 -74 -28 -71 -22 8 6 93 -9 134 -61 165 -25 16
-44 21 -48 15 -3 -6 -14 2 -23 16 -48 73 -187 74 -263 3 -13 -12 -34 -23 -49
-24 -31 -3 -51 -19 -76 -59 -18 -27 -19 -28 -13 -5 12 44 36 71 79 90 23 11
52 31 66 45 38 41 106 54 184 35z m-438 -16 c-3 -8 5 -31 19 -51 23 -35 24
-37 7 -65 -31 -53 -75 -45 -88 17 -4 23 1 39 25 73 32 43 48 55 37 26z m776
-51 c-22 -31 -36 -99 -22 -108 4 -3 15 -2 24 1 20 8 21 53 1 60 -12 5 -13 10
-4 20 17 21 28 17 40 -13 16 -44 -11 -93 -52 -93 l-31 0 4 58 c3 40 11 67 28
90 29 40 40 25 12 -15z m167 -205 c12 -21 13 -31 3 -52 -11 -26 -12 -26 -127
-26 -70 0 -115 4 -115 10 0 6 41 10 104 10 81 0 106 3 116 16 11 12 11 18 -2
30 -11 11 -38 15 -111 15 -79 0 -97 2 -97 14 0 12 19 14 107 12 105 -2 108 -3
122 -29z m-1084 -2 c12 -18 13 -30 6 -50 -12 -30 -27 -33 -53 -9 -19 17 -23
40 -9 61 5 9 8 2 9 -19 1 -35 15 -55 31 -45 18 11 13 64 -6 75 -10 6 -12 11
-6 11 7 0 20 -11 28 -24z m165 -17 c0 -19 -5 -29 -15 -29 -8 0 -15 -8 -15 -17
-1 -17 -1 -17 -11 0 -12 21 -4 38 16 30 9 -3 15 1 15 9 0 22 -12 29 -27 17
-10 -9 -13 -8 -13 4 0 15 27 28 43 20 4 -2 7 -17 7 -34z m206 20 c22 -25 90
-58 118 -59 18 0 18 2 -5 26 -13 15 -19 25 -14 22 6 -2 28 -12 50 -22 23 -11
75 -21 123 -24 83 -5 114 -21 45 -23 -21 0 -112 -3 -202 -5 l-164 -4 7 38 c3
20 6 45 6 55 0 23 13 22 36 -4z m-264 -34 c4 -54 -4 -57 -27 -9 -14 30 -15 38
-4 45 23 15 27 11 31 -36z m-52 31 c0 -3 -4 -8 -10 -11 -5 -3 -10 -1 -10 4 0
6 5 11 10 11 6 0 10 -2 10 -4z m115 -66 c-3 -5 -10 -10 -16 -10 -5 0 -9 5 -9
10 0 6 7 10 16 10 8 0 12 -4 9 -10z m305 -94 c0 -18 -5 -37 -12 -44 -15 -15
-62 -16 -88 -2 -18 10 -36 62 -27 77 3 5 32 6 66 5 l61 -4 0 -32z m70 -7 c0
-28 6 -42 22 -53 26 -18 109 -21 139 -6 18 10 19 7 19 -40 0 -50 -50 -203 -71
-215 -5 -4 -9 -11 -9 -16 0 -6 5 -7 10 -4 6 3 13 -1 16 -9 4 -11 -19 -42 -72
-96 l-78 -80 -60 66 c-34 37 -66 76 -73 88 -16 28 -18 105 -2 89 7 -7 12 -22
13 -34 1 -15 13 -30 34 -42 45 -27 52 -15 7 13 -20 12 -34 24 -32 27 3 2 20
-5 38 -16 35 -22 94 -27 118 -12 8 5 -3 7 -31 4 -36 -4 -52 0 -84 20 -50 32
-90 74 -104 112 -12 30 -20 165 -10 165 3 0 14 -7 24 -15 12 -9 42 -15 71 -15
46 0 53 3 63 25 7 14 12 41 12 60 0 28 3 32 20 28 16 -4 20 -14 20 -44z m141
41 c30 -16 26 -68 -7 -80 -37 -14 -70 -12 -88 6 -16 15 -22 65 -9 77 10 11 82
8 104 -3z m-396 -30 c8 -16 15 -48 15 -70 0 -33 -3 -41 -16 -38 -40 7 -71 92
-49 128 12 19 34 10 50 -20z m-189 4 c-3 -8 2 -26 10 -40 9 -13 14 -27 11 -30
-3 -3 -13 6 -22 20 -11 16 -27 26 -41 26 -12 0 -26 5 -29 11 -11 17 3 23 21 8
14 -11 17 -10 25 4 12 21 33 23 25 1z m708 0 c12 -31 7 -74 -9 -74 -8 0 -15 8
-16 18 0 12 -3 10 -10 -8 -7 -17 -7 -26 0 -28 19 -6 12 -34 -6 -30 -19 4 -21
35 -8 104 6 37 37 48 49 18z m-818 -15 c4 -8 -1 -9 -15 -4 -20 6 -22 4 -19
-22 2 -15 8 -26 13 -23 6 3 9 11 9 18 -1 6 2 12 7 12 16 0 10 -40 -7 -47 -24
-9 -48 21 -40 51 7 27 39 36 52 15z m21 -41 c-3 -7 -5 -2 -5 12 0 14 2 19 5
13 2 -7 2 -19 0 -25z m153 -8 c0 -16 -4 -30 -9 -30 -5 0 -11 14 -13 30 -3 20
0 30 9 30 8 0 13 -12 13 -30z m-100 0 c0 -11 -4 -20 -10 -20 -5 0 -10 9 -10
20 0 11 5 20 10 20 6 0 10 -9 10 -20z m1041 10 c22 -12 27 -71 6 -88 -12 -11
-277 -22 -277 -11 0 22 33 29 147 29 l123 0 0 25 0 25 -115 0 c-96 0 -115 3
-115 15 0 12 18 15 106 15 58 0 114 -5 125 -10z m-1049 -112 c-6 -6 -9 0 -9
18 0 23 1 24 9 10 7 -12 7 -21 0 -28z m132 -19 c13 20 38 13 31 -9 -3 -11 -2
-20 3 -20 6 0 8 -9 5 -20 -4 -14 0 -20 11 -20 11 0 16 -9 16 -29 0 -38 -16
-48 -41 -25 -10 9 -19 12 -19 7 0 -6 7 -16 15 -23 19 -16 19 -59 0 -66 -8 -4
-22 -1 -30 6 -18 15 -45 6 -45 -14 0 -20 -30 -29 -37 -10 -4 12 -14 14 -39 9
-34 -6 -39 -1 -34 34 1 8 -11 24 -26 36 -27 21 -28 24 -14 51 8 16 13 44 11
62 -2 23 2 32 13 32 8 0 18 -4 21 -10 3 -5 28 3 58 20 l52 28 21 -25 c14 -16
24 -21 28 -14z m739 -11 c6 -21 7 -21 25 -5 10 9 26 17 36 17 21 0 38 -45 32
-84 -3 -17 -3 -25 0 -18 8 17 24 5 24 -19 0 -10 -7 -19 -15 -19 -11 0 -13 -7
-9 -28 4 -20 0 -32 -12 -43 -13 -11 -18 -11 -21 -1 -7 18 -43 15 -43 -4 0 -20
-38 -15 -63 9 -13 13 -22 15 -37 7 -28 -15 -30 -13 -30 29 0 31 -4 38 -17 37
-13 -1 -19 8 -21 32 -2 24 1 32 12 32 9 0 16 -4 16 -10 0 -21 18 -9 22 15 7
32 -2 39 -18 17 -12 -16 -13 -15 -14 5 0 27 17 38 52 34 14 -1 29 2 33 8 11
19 42 12 48 -11z m-450 -423 c-12 -27 -26 -51 -31 -53 -7 -2 -92 213 -92 234
0 4 33 -24 73 -62 l72 -69 -22 -50z m211 168 c-22 -68 -90 -233 -96 -233 -4 0
-16 26 -28 57 l-21 56 68 69 c69 70 87 81 77 51z m-450 -7 c-6 -15 -112 -66
-135 -66 -10 1 121 76 138 80 1 0 0 -6 -3 -14z m644 -27 c64 -34 83 -49 64
-49 -17 0 -90 38 -121 61 -37 29 -5 22 57 -12z"/>
    <path d="M7839 2487 c-15 -34 -4 -77 20 -77 35 0 42 57 11 85 -19 17 -20 17
-31 -8z"/>
    <path d="M8130 2125 c0 -16 9 -19 34 -9 25 9 19 24 -9 24 -16 0 -25 -6 -25
-15z"/>
    <path d="M8230 1980 c0 -5 15 -10 33 -9 27 0 29 2 12 9 -28 12 -45 12 -45 0z"/>
    <path d="M8205 1900 c3 -5 13 -10 21 -10 8 0 14 5 14 10 0 6 -9 10 -21 10 -11
0 -17 -4 -14 -10z"/>
    <path d="M8340 1809 c-22 -18 -22 -19 -3 -10 12 6 25 16 28 21 9 15 3 12 -25
-11z"/>
    <path d="M8335 2139 c-8 -12 11 -29 33 -29 19 0 10 34 -10 38 -9 2 -19 -2 -23
-9z"/>
    <path d="M7800 1888 c-26 -44 -25 -52 11 -82 40 -34 51 -33 83 8 22 30 25 39
15 63 -13 34 -26 43 -62 43 -20 0 -32 -8 -47 -32z"/>
    <path d="M8604 1895 c-23 -36 -21 -75 6 -97 31 -25 52 -23 84 11 27 28 27 30
12 60 -29 54 -75 66 -102 26z"/>
    <path d="M1725 2696 c-180 -42 -300 -120 -400 -261 -78 -110 -110 -191 -124
-316 -28 -250 74 -460 294 -603 l70 -46 -175 0 c-96 0 -181 -4 -189 -9 -8 -5
-11 -16 -8 -25 6 -14 69 -16 644 -16 352 0 644 4 652 9 8 5 11 16 8 25 -6 14
-29 16 -169 16 l-163 0 55 36 c287 190 381 552 218 844 -71 126 -170 226 -283
283 -129 64 -309 91 -430 63z m115 -78 c0 -38 -5 -34 -13 10 -4 21 -3 31 3 27
6 -3 10 -20 10 -37z m-66 17 c-4 -8 -10 -15 -15 -15 -5 0 -9 -5 -9 -11 0 -13
42 -1 52 15 5 6 8 2 8 -10 0 -16 -8 -23 -27 -27 -46 -9 -69 23 -35 49 23 18
33 17 26 -1z m317 -70 c17 4 29 2 29 -3 0 -24 -68 -20 -77 4 -3 8 -1 26 3 42
8 26 8 26 12 -11 3 -37 5 -38 33 -32z m-150 37 c-7 -2 -18 1 -23 6 -8 8 -4 9
13 5 13 -4 18 -8 10 -11z m-301 -11 c0 -5 -7 -12 -16 -15 -14 -5 -15 -4 -4 9
14 17 20 19 20 6z m315 -49 c11 -5 29 -20 39 -31 11 -12 30 -21 44 -21 16 0
40 -16 68 -44 49 -48 53 -68 34 -167 -16 -83 -27 -78 -22 11 3 56 1 89 -9 106
-14 28 -71 67 -91 62 -7 -1 -26 10 -43 26 -37 35 -65 46 -117 46 -51 0 -104
-25 -131 -62 -13 -17 -23 -24 -28 -17 -10 16 -66 -16 -82 -48 -8 -14 -17 -22
-20 -16 -11 17 32 73 70 90 21 9 53 31 71 47 47 44 154 53 217 18z m-451 -4
c-3 -13 -13 -30 -21 -40 -17 -19 -14 -80 4 -86 7 -2 18 8 24 22 9 20 9 29 -2
42 -12 14 -11 16 6 13 30 -6 30 -44 1 -74 -29 -29 -53 -24 -67 12 -10 26 9 83
38 115 21 24 26 23 17 -4z m726 -17 c0 -12 -20 -25 -27 -18 -7 7 6 27 18 27 5
0 9 -4 9 -9z m24 -63 c9 -12 16 -30 16 -39 0 -27 -39 -69 -66 -69 -22 0 -24 4
-24 49 0 27 3 56 6 65 9 23 50 19 68 -6z m26 -142 c41 -3 82 -5 91 -6 9 0 21
-11 27 -25 16 -34 15 -40 -4 -59 -20 -21 -214 -24 -214 -3 0 8 16 11 56 9 31
-2 76 -1 101 3 38 5 44 9 41 28 -3 20 -10 22 -98 27 -92 5 -95 6 -98 30 -3 19
-1 22 10 13 7 -6 47 -14 88 -17z m-906 -25 c4 -5 -3 -7 -14 -4 -12 3 -29 -2
-42 -13 -21 -19 -21 -19 -9 4 12 22 54 31 65 13z m136 -6 c11 -13 9 -15 -11
-13 -20 3 -24 -1 -24 -24 1 -31 -7 -35 -25 -13 -10 12 -9 20 4 40 19 28 38 32
56 10z m206 -6 c20 -22 54 -42 93 -54 22 -7 23 -5 17 18 l-6 26 37 -16 c21 -8
77 -18 125 -21 68 -4 85 -8 81 -19 -4 -11 -42 -13 -200 -12 -194 1 -195 1
-189 23 3 11 6 33 6 49 0 32 10 34 36 6z m-348 -33 c5 -24 -10 -38 -31 -30
-17 6 -23 35 -10 48 12 12 38 1 41 -18z m147 -26 c-3 -5 -12 -10 -18 -10 -7 0
-6 4 3 10 19 12 23 12 15 0z m297 -75 c16 -36 -12 -75 -55 -75 -43 0 -57 15
-57 62 l0 38 50 0 c44 0 52 -3 62 -25z m184 15 c51 0 54 -1 54 -25 0 -58 -84
-89 -114 -42 -8 12 -18 35 -22 51 -6 25 -5 28 10 23 10 -4 42 -7 72 -7z m-106
-35 c0 -50 28 -75 86 -75 25 0 54 5 65 10 18 10 19 7 19 -42 0 -30 -11 -83
-25 -123 -14 -38 -25 -80 -25 -92 0 -13 -8 -36 -18 -52 -21 -35 -120 -141
-130 -141 -10 0 -125 128 -134 149 -4 9 -7 30 -7 46 l-1 30 23 -26 c25 -29 64
-60 54 -43 -5 8 8 10 41 8 42 -3 43 -2 11 4 -96 21 -174 126 -181 242 -1 23
-6 44 -10 46 -4 3 -8 11 -8 19 0 9 9 5 25 -10 20 -21 34 -25 83 -25 32 0 63 5
70 12 7 7 12 31 12 55 0 39 2 43 25 43 22 0 25 -4 25 -35z m-252 -42 c2 -36
-1 -63 -7 -63 -21 0 -51 54 -51 92 0 37 2 39 28 36 26 -3 27 -6 30 -65z m512
31 c0 -35 -32 -94 -51 -94 -10 0 -12 53 -3 99 5 24 12 31 30 31 21 0 24 -5 24
-36z m-637 -14 c5 -21 3 -26 -13 -26 -15 0 -20 7 -20 26 0 49 22 49 33 0z
m-208 1 c-3 -16 -2 -32 4 -35 6 -4 13 9 17 29 3 19 11 35 16 35 6 0 8 -10 4
-22 -3 -13 -6 -31 -6 -40 0 -12 -8 -18 -25 -18 -22 0 -25 4 -25 40 0 22 5 40
11 40 7 0 8 -11 4 -29z m1114 -25 c29 -26 24 -66 -9 -83 -29 -14 -260 -18
-260 -4 0 11 85 21 183 21 75 0 77 0 77 25 l0 25 -110 0 c-60 0 -110 2 -110 4
0 2 3 12 6 21 10 26 193 18 223 -9z m-1029 -10 c0 -3 -4 -8 -10 -11 -5 -3 -10
-1 -10 4 0 6 5 11 10 11 6 0 10 -2 10 -4z m140 -94 c0 -26 3 -28 30 -24 31 4
31 4 29 -37 -2 -30 2 -44 16 -55 18 -13 18 -14 -4 -25 -17 -10 -21 -20 -19
-44 3 -33 3 -33 -44 -20 -13 4 -18 0 -18 -17 0 -16 -5 -21 -22 -19 -13 2 -29
0 -35 -4 -8 -5 -13 -3 -13 7 0 12 -7 14 -29 10 -31 -7 -50 11 -32 29 8 8 5 17
-10 33 l-21 22 21 7 c12 3 19 11 15 16 -3 5 -14 7 -24 4 -17 -5 -18 -2 -14 32
8 58 11 63 38 63 15 0 25 7 29 20 6 24 52 28 61 5 8 -22 26 -18 26 5 0 11 5
20 10 20 6 0 10 -13 10 -28z m848 -52 c28 -17 31 -24 26 -47 -4 -16 -9 -30
-11 -33 -3 -3 -65 -5 -139 -4 -139 1 -164 8 -164 45 0 48 15 54 138 57 103 3
121 1 150 -18z m-192 -132 c5 -8 2 -9 -10 -5 -10 4 -19 1 -22 -8 -9 -22 -24
-18 -24 5 0 15 7 20 24 20 14 0 28 -5 32 -12z m177 2 c9 0 17 -4 17 -10 0 -5
-7 -7 -15 -4 -8 4 -17 -1 -20 -9 -5 -12 -11 -12 -43 -1 -20 7 -53 14 -72 15
l-35 2 40 7 c22 5 56 6 75 4 19 -2 43 -4 53 -4z m-375 -205 c-24 -65 -48 -120
-54 -122 -7 -2 -20 20 -31 52 l-18 56 70 73 c38 40 71 70 73 66 1 -3 -17 -60
-40 -125z m-149 -12 c6 -3 -43 -113 -50 -113 -4 0 -11 12 -17 28 -18 47 -62
187 -62 197 0 5 28 -17 62 -50 34 -33 64 -61 67 -62z m368 75 c61 -33 80 -55
37 -44 -15 4 -50 23 -76 43 -73 53 -62 53 39 1z m-663 -2 c-76 -35 -107 -40
-44 -7 30 16 64 29 75 30 11 0 -3 -10 -31 -23z"/>
    <path d="M2206 2429 c-9 -47 -8 -51 17 -47 18 2 22 9 22 38 0 47 -30 54 -39 9z"/>
    <path d="M1340 2245 c-7 -9 -8 -15 -2 -15 5 0 12 7 16 15 3 8 4 15 2 15 -2 0
-9 -7 -16 -15z"/>
    <path d="M1737 2134 c-10 -11 3 -24 24 -24 10 0 19 7 19 15 0 15 -31 21 -43 9z"/>
    <path d="M1956 2134 c-9 -22 -2 -27 24 -19 12 4 19 12 17 18 -6 19 -34 20 -41
1z"/>
    <path d="M1842 1975 c14 -15 21 -16 40 -7 23 11 23 11 1 11 -12 1 -30 4 -40 7
-17 6 -17 6 -1 -11z"/>
    <path d="M1835 1890 c11 -5 29 -8 40 -8 16 0 15 2 -5 8 -34 11 -60 11 -35 0z"/>
    <path d="M1987 1813 c-4 -3 -7 -11 -7 -17 0 -6 5 -5 12 2 6 6 9 14 7 17 -3 3
-9 2 -12 -2z"/>
    <path d="M1458 1916 c-12 -6 -29 -24 -37 -40 -12 -25 -11 -31 6 -54 36 -49 49
-50 89 -11 l35 36 -17 36 c-19 40 -42 50 -76 33z"/>
    <path d="M2175 1913 c-52 -5 -71 -19 -53 -40 16 -19 258 -18 258 1 0 7 -6 18
-12 24 -16 12 -125 21 -193 15z"/>
    <path d="M3605 2041 c-8 -15 3 -31 21 -31 9 0 14 7 12 17 -4 20 -24 28 -33 14z"/>
    <path d="M3797 2003 c-4 -3 -7 -17 -7 -30 0 -19 5 -23 28 -23 37 0 54 17 41
42 -9 17 -49 25 -62 11z"/>
    <path d="M4082 1988 c-9 -9 -12 -83 -12 -270 0 -244 1 -258 19 -268 13 -6 179
-10 470 -10 l450 0 15 22 c13 19 16 62 16 268 0 178 -3 249 -12 258 -17 17
-929 17 -946 0z m886 -100 c1 -5 2 -91 2 -193 l0 -185 -420 0 -420 0 0 193 0
192 418 0 c229 0 418 -3 420 -7z"/>
    <path d="M3026 1965 c-19 -29 -60 -42 -80 -26 -10 9 -19 7 -37 -8 -21 -17 -22
-21 -10 -44 16 -30 0 -67 -29 -67 -30 0 -26 -45 4 -65 29 -19 40 -45 26 -59
-16 -16 -12 -41 10 -61 16 -14 23 -16 32 -7 20 20 45 14 71 -18 32 -37 86 -43
94 -10 3 12 18 27 33 35 23 12 30 12 46 1 17 -12 23 -11 44 6 23 19 23 20 7
48 -21 34 -13 60 18 60 44 0 43 65 -1 76 -31 8 -41 40 -18 65 16 18 16 20 -1
39 -22 24 -41 26 -52 5 -13 -22 -70 2 -78 32 -8 33 -57 32 -79 -2z m108 -118
c56 -73 10 -167 -82 -167 -40 0 -73 39 -79 92 -4 37 -1 49 22 76 23 27 34 32
70 32 38 0 47 -5 69 -33z"/>
    <path d="M3026 1834 c-62 -62 10 -149 82 -98 28 19 30 74 4 97 -23 21 -66 22
-86 1z"/>
    <path d="M6337 1964 c-4 -4 -7 -18 -7 -31 0 -26 -12 -30 -30 -8 -31 37 -96 -4
-84 -53 l7 -27 -22 25 -21 25 -25 -30 c-22 -26 -23 -31 -9 -46 19 -21 8 -70
-17 -76 -35 -9 -34 -57 2 -68 22 -7 38 -57 21 -63 -17 -5 -15 -47 4 -63 12
-10 20 -10 35 -1 26 16 42 7 29 -17 -7 -14 -4 -23 14 -40 26 -25 39 -26 56 -6
20 24 37 18 44 -16 5 -27 9 -30 28 -25 13 3 35 6 51 6 19 0 27 5 27 18 0 29
10 33 41 16 46 -23 85 7 72 55 -7 26 4 27 30 4 18 -17 20 -17 38 6 23 28 24
44 4 61 -24 20 -18 49 10 56 21 5 25 12 25 40 0 27 -5 37 -25 46 -29 13 -32
34 -9 67 16 22 15 24 -10 49 l-26 27 -16 -23 c-21 -30 -36 -28 -22 4 11 23 10
29 -12 46 -13 11 -30 16 -39 12 -42 -17 -49 -16 -53 8 -3 20 -9 23 -53 26 -28
2 -54 0 -58 -4z m98 -199 c32 -31 34 -86 5 -115 -45 -45 -130 -8 -130 56 0 42
37 84 75 84 14 0 37 -11 50 -25z"/>
    <path d="M3370 1940 c-52 -6 -53 -7 -13 -8 23 -1 48 -9 56 -17 13 -12 17 -13
27 0 11 14 6 37 -8 33 -4 -1 -32 -4 -62 -8z"/>
    <path d="M3513 1881 c-63 -39 -86 -108 -59 -173 32 -76 108 -105 182 -69 54
25 84 72 84 127 0 34 -7 49 -38 84 -33 37 -44 43 -87 47 -38 3 -58 -1 -82 -16z"/>
    <path d="M6924 1890 c-17 -7 -20 -14 -16 -36 5 -26 3 -27 -26 -21 -22 5 -37 1
-54 -13 -20 -16 -21 -21 -10 -40 9 -14 10 -26 2 -40 -5 -10 -10 -28 -10 -40 0
-12 -4 -18 -11 -15 -6 4 -8 13 -5 21 3 8 1 14 -4 14 -18 0 -11 -60 8 -67 25
-9 32 -24 21 -44 -14 -28 -11 -54 10 -73 16 -14 24 -15 40 -6 25 13 45 4 37
-16 -7 -18 28 -54 53 -54 11 0 23 9 26 20 8 26 23 25 51 -1 18 -16 29 -19 54
-14 29 6 32 10 26 36 -4 23 -1 31 12 36 34 12 52 36 52 70 0 29 4 34 30 40 26
5 30 10 30 38 0 27 -5 34 -25 39 -24 6 -36 36 -15 36 6 0 10 10 10 21 0 19 -2
20 -16 8 -14 -11 -16 -10 -12 11 2 21 -2 25 -27 30 -24 4 -30 10 -30 30 0 17
-7 26 -25 31 -41 11 -48 10 -55 -11 -3 -11 -15 -20 -25 -20 -11 0 -24 9 -30
20 -11 21 -31 24 -66 10z m123 -145 c12 -9 25 -31 29 -51 14 -73 -79 -116
-125 -58 -24 30 -26 43 -10 78 20 42 69 57 106 31z m83 -144 c0 -5 -15 -20
-32 -32 l-33 -23 30 32 c33 35 35 36 35 23z m-170 -55 c0 -2 -9 -2 -20 1 -11
3 -20 9 -20 15 0 5 9 4 20 -2 11 -6 20 -12 20 -14z"/>
    <path d="M3835 1790 c-3 -5 -23 -10 -43 -11 -36 0 -35 -1 16 -15 59 -15 72
-13 72 17 0 20 -34 27 -45 9z"/>
    <path d="M3839 1604 c-9 -11 -22 -14 -41 -10 -18 3 -27 2 -23 -4 3 -6 13 -10
21 -10 8 0 28 -7 44 -15 26 -13 30 -13 51 4 14 11 20 24 16 34 -8 21 -50 22
-68 1z"/>
    <path d="M7166 1544 c-4 -9 -4 -19 -1 -22 2 -3 7 3 11 12 4 9 4 19 1 22 -2 3
-7 -3 -11 -12z"/>
    <path d="M2970 1493 c-38 -13 -40 -30 -40 -301 0 -162 4 -271 10 -283 10 -18
23 -19 211 -19 l200 0 -6 -22 c-4 -13 -9 -31 -11 -40 -4 -13 -13 -15 -38 -11
-25 4 -35 1 -40 -12 -10 -26 -1 -32 46 -29 24 2 100 3 171 3 120 1 127 2 127
21 0 17 -7 20 -38 20 -35 0 -40 3 -49 35 l-11 35 197 0 c140 0 200 3 209 12 9
9 12 88 12 295 0 269 -1 283 -19 293 -20 10 -902 14 -931 3z m890 -270 l0
-208 -430 0 -430 0 0 208 0 207 430 0 430 0 0 -207z"/>
    <path d="M1305 1353 c-96 -6 -95 -4 -95 -230 0 -193 0 -194 25 -218 l24 -25
584 0 c576 0 585 0 611 21 l26 20 0 195 c0 194 0 195 -25 219 l-24 25 -533 -2
c-293 -1 -560 -3 -593 -5z m955 -233 l0 -150 -382 0 c-211 0 -427 3 -480 7
l-98 6 0 54 0 53 65 0 65 0 0 30 0 30 -65 0 -65 0 0 60 0 60 480 0 480 0 0
-150z m130 90 l0 -60 -39 0 -39 0 -4 60 -3 60 43 0 42 0 0 -60z m0 -175 l0
-65 -40 0 -40 0 0 65 0 65 40 0 40 0 0 -65z"/>
    <path d="M1380 1205 c0 -34 1 -35 28 -29 35 9 35 9 28 39 -5 18 -13 25 -31 25
-22 0 -25 -4 -25 -35z"/>
    <path d="M1470 1210 c0 -27 3 -31 23 -28 16 2 22 10 22 28 0 18 -6 26 -22 28
-20 3 -23 -1 -23 -28z"/>
    <path d="M1540 1221 c0 -34 10 -49 31 -44 10 3 20 9 20 14 6 38 3 44 -23 47
-22 3 -28 -1 -28 -17z"/>
    <path d="M1630 1210 c0 -54 49 -32 50 23 0 4 -11 7 -25 7 -21 0 -25 -5 -25
-30z"/>
    <path d="M1712 1213 c2 -20 9 -28 23 -28 14 0 21 8 23 28 3 23 0 27 -23 27
-23 0 -26 -4 -23 -27z"/>
    <path d="M1790 1216 c0 -30 13 -40 40 -31 13 4 20 15 20 31 0 20 -5 24 -30 24
-25 0 -30 -4 -30 -24z"/>
    <path d="M1880 1216 c0 -17 7 -25 25 -28 30 -6 35 -2 35 29 0 19 -5 23 -30 23
-25 0 -30 -4 -30 -24z"/>
    <path d="M1970 1210 c0 -25 4 -30 25 -30 21 0 25 5 25 30 0 25 -4 30 -25 30
-21 0 -25 -5 -25 -30z"/>
    <path d="M2070 1217 c0 -31 6 -36 37 -28 16 4 27 15 30 29 2 19 -2 22 -32 22
-30 0 -35 -3 -35 -23z"/>
    <path d="M2160 1215 c0 -22 4 -25 35 -25 31 0 35 3 35 25 0 22 -4 25 -35 25
-31 0 -35 -3 -35 -25z"/>
    <path d="M2077 1153 c-4 -3 -7 -17 -7 -30 0 -19 5 -23 30 -23 27 0 30 3 30 30
0 25 -4 30 -23 30 -13 0 -27 -3 -30 -7z"/>
    <path d="M2160 1129 c0 -28 2 -30 33 -27 27 2 33 8 35 31 3 25 1 27 -32 27
-33 0 -36 -2 -36 -31z"/>
    <path d="M1454 1134 c3 -9 6 -22 6 -30 0 -11 8 -14 28 -12 21 2 28 9 30 31 3
25 1 27 -33 27 -30 0 -36 -3 -31 -16z"/>
    <path d="M1540 1120 c0 -27 3 -30 30 -30 27 0 30 3 30 30 0 27 -3 30 -30 30
-27 0 -30 -3 -30 -30z"/>
    <path d="M1628 1125 c-6 -30 -2 -35 29 -35 19 0 23 5 23 30 0 25 -4 30 -24 30
-17 0 -25 -7 -28 -25z"/>
    <path d="M1710 1115 c0 -34 2 -36 28 -33 23 3 27 8 27 33 0 25 -4 30 -27 33
-26 3 -28 1 -28 -33z"/>
    <path d="M1790 1114 c0 -33 2 -35 28 -32 22 2 28 8 30 36 3 30 1 32 -27 32
-29 0 -31 -3 -31 -36z"/>
    <path d="M1876 1134 c-3 -9 -6 -25 -6 -35 0 -16 6 -20 28 -17 22 2 28 8 30 36
3 28 0 32 -21 32 -14 0 -28 -7 -31 -16z"/>
    <path d="M1960 1120 c0 -26 3 -30 29 -30 28 0 41 14 41 46 0 9 -11 14 -35 14
-32 0 -35 -2 -35 -30z"/>
    <path d="M1384 1046 c-12 -31 0 -51 31 -51 27 0 30 3 30 30 0 25 -4 30 -28 33
-17 2 -29 -2 -33 -12z"/>
    <path d="M1470 1025 c0 -31 3 -35 25 -35 18 0 26 7 31 24 8 32 -2 46 -32 46
-21 0 -24 -5 -24 -35z"/>
    <path d="M1578 1052 c-22 -3 -28 -9 -28 -28 0 -13 6 -24 13 -24 6 0 22 -3 35
-6 19 -6 22 -3 22 24 0 35 -5 39 -42 34z"/>
    <path d="M1640 1035 c0 -41 8 -42 200 -41 l185 1 0 28 0 28 -193 2 c-186 2
-192 1 -192 -18z"/>
    <path d="M2072 1023 c2 -22 9 -29 31 -31 26 -3 28 -1 25 25 -2 22 -9 29 -31
31 -26 3 -28 1 -25 -25z"/>
    <path d="M2160 1014 c0 -23 3 -25 33 -22 24 2 33 8 35 26 3 19 -1 22 -32 22
-32 0 -36 -3 -36 -26z"/>
    <path d="M7605 1338 l-26 -23 -2 -193 -2 -194 28 -24 28 -24 625 0 625 0 24
25 c25 24 25 25 25 220 0 182 -1 196 -20 215 -20 20 -33 20 -649 20 l-630 0
-26 -22z m1016 -68 l79 0 0 -149 0 -150 -515 -1 -515 0 0 60 0 60 64 0 c68 0
81 7 71 40 -5 17 -15 20 -71 20 l-64 0 0 60 0 60 393 3 c215 2 412 2 436 0 24
-2 79 -3 122 -3z m217 -57 l-3 -58 -42 -3 -43 -3 0 60 0 61 45 0 46 0 -3 -57z
m-3 -178 l0 -60 -40 0 -40 0 -3 63 -3 63 43 -3 43 -3 0 -60z"/>
    <path d="M7740 1221 c0 -36 10 -48 36 -43 19 3 24 11 24 33 0 26 -4 29 -30 29
-23 0 -30 -5 -30 -19z"/>
    <path d="M7830 1213 c0 -23 4 -28 25 -28 21 0 25 5 25 28 0 22 -4 27 -25 27
-21 0 -25 -5 -25 -27z"/>
    <path d="M7910 1213 c0 -24 4 -28 30 -28 26 0 30 4 30 28 0 23 -4 27 -30 27
-26 0 -30 -4 -30 -27z"/>
    <path d="M7994 1213 c1 -21 6 -26 29 -27 23 -1 27 2 27 26 0 24 -4 28 -29 28
-24 0 -28 -4 -27 -27z"/>
    <path d="M8080 1213 c0 -25 3 -28 32 -27 28 1 33 5 33 25 0 20 -6 25 -32 27
-30 3 -33 1 -33 -25z"/>
    <path d="M8170 1210 c0 -54 49 -32 50 23 0 4 -11 7 -25 7 -21 0 -25 -5 -25
-30z"/>
    <path d="M8240 1226 c0 -8 -3 -21 -6 -30 -4 -11 1 -15 23 -13 26 2 47 29 36
50 -8 13 -53 8 -53 -7z"/>
    <path d="M8318 1215 c-6 -31 -4 -33 27 -27 18 3 25 11 25 28 0 35 -46 34 -52
-1z"/>
    <path d="M8400 1212 c0 -26 3 -28 30 -24 24 3 30 9 30 28 0 20 -5 24 -30 24
-26 0 -30 -4 -30 -28z"/>
    <path d="M8512 1213 c2 -17 10 -29 21 -31 32 -6 45 5 40 32 -4 21 -11 26 -35
26 -26 0 -29 -3 -26 -27z"/>
    <path d="M8606 1224 c-13 -33 -6 -44 24 -44 27 0 30 3 30 30 0 25 -4 30 -24
30 -13 0 -27 -7 -30 -16z"/>
    <path d="M8160 1123 c0 -28 3 -33 24 -33 19 0 25 6 28 29 4 26 1 30 -24 33
-26 4 -28 2 -28 -29z"/>
    <path d="M8510 1130 c0 -28 3 -30 35 -30 32 0 35 2 35 30 0 28 -3 30 -35 30
-32 0 -35 -2 -35 -30z"/>
    <path d="M8600 1137 c0 -32 7 -37 43 -30 32 6 39 43 8 43 -11 0 -26 3 -35 6
-12 5 -16 0 -16 -19z"/>
    <path d="M7828 1120 c-4 -29 -3 -31 26 -28 26 2 31 7 31 28 0 20 -6 26 -26 28
-23 3 -27 -1 -31 -28z"/>
    <path d="M7910 1120 c0 -27 3 -30 30 -30 27 0 30 3 30 30 0 27 -3 30 -30 30
-27 0 -30 -3 -30 -30z"/>
    <path d="M7990 1120 c0 -27 3 -30 30 -30 27 0 30 3 30 30 0 27 -3 30 -30 30
-27 0 -30 -3 -30 -30z"/>
    <path d="M8070 1120 c0 -28 3 -30 35 -30 32 0 35 2 35 30 0 28 -3 30 -35 30
-32 0 -35 -2 -35 -30z"/>
    <path d="M8240 1120 c0 -25 4 -30 25 -30 21 0 25 5 25 30 0 25 -4 30 -25 30
-21 0 -25 -5 -25 -30z"/>
    <path d="M8320 1120 c0 -25 4 -30 25 -30 21 0 25 5 25 30 0 25 -4 30 -25 30
-21 0 -25 -5 -25 -30z"/>
    <path d="M8400 1120 c0 -27 3 -30 30 -30 27 0 30 3 30 30 0 27 -3 30 -30 30
-27 0 -30 -3 -30 -30z"/>
    <path d="M7840 1025 c0 -34 2 -36 28 -33 23 3 27 8 27 33 0 25 -4 30 -27 33
-26 3 -28 1 -28 -33z"/>
    <path d="M7937 1053 c-4 -3 -7 -17 -7 -30 0 -19 5 -23 30 -23 30 0 37 11 24
44 -6 16 -35 22 -47 9z"/>
    <path d="M8014 1035 c-4 -14 -3 -29 1 -33 4 -4 105 -7 226 -7 l219 0 0 32 0
33 -220 0 -220 0 -6 -25z"/>
    <path d="M7750 1019 c0 -28 2 -30 33 -27 27 2 33 8 35 31 3 25 1 27 -32 27
-33 0 -36 -2 -36 -31z"/>
    <path d="M8514 1024 c3 -9 6 -20 6 -25 0 -5 11 -9 25 -9 20 0 25 5 25 25 0 21
-5 25 -31 25 -24 0 -30 -3 -25 -16z"/>
    <path d="M8602 1018 c2 -18 10 -23 33 -23 23 0 31 5 33 23 3 19 -1 22 -33 22
-32 0 -36 -3 -33 -22z"/>
    <path d="M8792 1200 c0 -14 2 -19 5 -12 2 6 2 18 0 25 -3 6 -5 1 -5 -13z"/>
    <path d="M4087 1302 c-15 -16 -17 -47 -17 -219 0 -181 2 -201 18 -216 17 -15
63 -17 463 -17 386 0 447 2 467 16 21 15 22 20 22 218 0 184 -2 204 -18 219
-17 15 -64 17 -469 17 -423 0 -451 -1 -466 -18z m893 -212 l0 -170 -425 0
-425 0 0 170 0 170 425 0 425 0 0 -170z"/>
    <path d="M5323 1298 c-11 -13 -23 -35 -27 -50 l-6 -28 294 0 c162 0 297 3 300
8 2 4 -8 25 -23 47 l-27 40 -245 3 c-244 2 -245 2 -266 -20z"/>
    <path d="M6140 1261 l-25 -7 -3 -186 c-2 -171 -1 -188 15 -196 25 -14 990 -14
1014 -1 18 9 19 24 19 198 l0 188 -182 6 c-259 8 -808 7 -838 -2z m939 -57
l31 -6 0 -144 0 -144 -104 0 c-83 0 -105 3 -110 15 -5 13 -47 15 -301 15 -274
0 -295 -1 -295 -17 0 -15 -10 -18 -62 -18 -78 0 -76 -4 -77 173 l-1 132 444 0
c244 0 458 -3 475 -6z"/>
    <path d="M7027 1153 c-25 -4 -28 -8 -25 -36 3 -29 6 -32 41 -35 l38 -3 -3 37
c-3 40 -8 43 -51 37z"/>
    <path d="M6203 1115 c-2 -34 -1 -35 38 -35 38 0 39 1 39 35 0 34 -1 35 -37 35
-36 0 -38 -2 -40 -35z"/>
    <path d="M6302 1118 c3 -30 6 -33 41 -36 36 -3 37 -3 37 32 0 35 -1 36 -41 36
-39 0 -40 -1 -37 -32z"/>
    <path d="M6408 1115 c3 -26 9 -35 22 -35 36 0 50 12 50 41 0 27 -3 29 -38 29
-38 0 -38 0 -34 -35z"/>
    <path d="M6502 1118 c3 -30 6 -33 41 -36 36 -3 37 -3 37 32 0 35 -1 36 -41 36
-39 0 -40 -1 -37 -32z"/>
    <path d="M6610 1115 c0 -33 2 -35 35 -35 33 0 35 2 35 35 0 33 -2 35 -35 35
-33 0 -35 -2 -35 -35z"/>
    <path d="M6707 1143 c-4 -3 -7 -19 -7 -35 0 -26 3 -28 40 -28 39 0 40 1 40 35
0 33 -2 35 -33 35 -19 0 -37 -3 -40 -7z"/>
    <path d="M6805 1118 c9 -42 8 -41 44 -33 26 5 31 11 31 36 0 27 -2 29 -41 29
-41 0 -41 0 -34 -32z"/>
    <path d="M6902 1118 c3 -30 6 -33 38 -33 32 0 35 3 38 33 3 31 3 32 -38 32
-41 0 -41 -1 -38 -32z"/>
    <path d="M6238 1043 c-16 -2 -28 -7 -28 -11 0 -4 -3 -17 -6 -29 -6 -21 -3 -23
34 -23 39 0 40 1 40 35 0 19 -3 34 -6 34 -4 -1 -19 -4 -34 -6z"/>
    <path d="M6307 1043 c-3 -4 -3 -20 0 -36 5 -23 10 -27 39 -27 31 0 34 3 34 30
0 17 -5 30 -12 30 -7 0 -23 3 -34 6 -12 3 -24 2 -27 -3z"/>
    <path d="M6643 1043 c-29 -4 -33 -8 -33 -34 0 -27 3 -29 35 -29 33 0 35 2 35
35 0 19 -1 34 -2 33 -2 0 -18 -3 -35 -5z"/>
    <path d="M6710 1013 c0 -31 2 -33 35 -33 32 0 35 3 35 29 0 25 -4 29 -35 33
-34 4 -35 3 -35 -29z"/>
    <path d="M6410 1004 c0 -34 1 -35 33 -32 28 3 32 7 35 36 3 31 2 32 -32 32
-35 0 -36 -1 -36 -36z"/>
    <path d="M6508 1010 c4 -27 8 -30 38 -30 31 0 34 3 34 30 0 28 -2 30 -38 30
-37 0 -38 -1 -34 -30z"/>
    <path d="M6808 1010 c4 -27 8 -30 38 -30 31 0 34 3 34 30 0 28 -2 30 -38 30
-37 0 -38 -1 -34 -30z"/>
    <path d="M6900 1010 c0 -28 2 -30 40 -30 38 0 40 2 40 30 0 28 -2 30 -40 30
-38 0 -40 -2 -40 -30z"/>
    <path d="M7000 1026 c0 -33 13 -46 46 -46 31 0 34 3 34 30 0 28 -2 30 -40 30
-28 0 -40 -4 -40 -14z"/>
    <path d="M5152 1228 c-33 -33 17 -88 53 -58 25 21 15 64 -15 68 -14 2 -31 -3
-38 -10z"/>
    <path d="M5300 1075 l0 -115 55 0 55 0 0 115 0 115 -55 0 -55 0 0 -115z"/>
    <path d="M5440 1075 l0 -115 190 0 190 0 0 115 0 115 -190 0 -190 0 0 -115z
m338 63 c-7 -19 -298 -25 -298 -6 0 10 34 14 151 16 121 3 150 1 147 -10z
m-11 -61 c1 -2 -1 -7 -5 -12 -11 -15 -282 -7 -282 8 0 9 37 11 142 9 79 -2
144 -4 145 -5z m-67 -56 l35 -4 -35 -6 c-19 -4 -77 -8 -127 -10 -71 -1 -93 1
-93 11 0 10 23 13 93 12 50 0 108 -2 127 -3z"/>
    <path d="M5850 1076 l0 -116 40 0 41 0 -3 113 -3 112 -37 3 -38 3 0 -115z"/>
    <path d="M9574 940 c0 -102 2 -143 3 -92 2 50 2 134 0 185 -1 50 -3 9 -3 -93z"/>
    <path d="M5173 1093 c-7 -3 -13 -11 -13 -20 0 -17 41 -14 47 3 4 13 -16 23
-34 17z"/>
    <path d="M5607 930 l-307 -5 22 -32 c40 -56 50 -58 296 -55 165 1 229 5 242
15 25 18 62 65 58 75 -2 4 -141 5 -311 2z"/>
    <path d="M654 401 c21 -23 26 -26 26 -11 0 5 -10 15 -22 21 -23 12 -23 12 -4
-10z"/>
    <path d="M9318 373 c7 -3 16 -2 19 1 4 3 -2 6 -13 5 -11 0 -14 -3 -6 -6z"/>
    <path d="M2913 363 c1171 -2 3083 -2 4250 0 1167 1 210 2 -2128 2 -2337 0
-3292 -1 -2122 -2z"/>
  </g>
</svg>
